<?xml version="1.0" encoding="UTF-8"?>
<svg width="369.867222px" height="427.05147px" viewBox="0 0 369.867222 427.05147" version="1.1" xmlns="http://www.w3.org/2000/svg" xmlns:xlink="http://www.w3.org/1999/xlink">
    <title>Logo</title>
    <g id="page" stroke="none" stroke-width="1" fill="none" fill-rule="evenodd">
        <path d="M99.1672956,175.974119 L99.1672956,325.974119 L229.071106,400.974119 L184.903811,426.474119 L55,351.474119 L55,201.474119 L99.1672956,175.974119 Z M369.337421,269.025735 L369.337421,320.025735 L239.433611,395.025735 L109.5298,320.025735 L109.5298,269.025735 L239.433611,344.025735 L369.337421,269.025735 Z M130.403811,94.9741193 L174.571106,120.474119 L44.6672956,195.474119 L44.6672956,345.474119 L0.5,319.974119 L0.5,169.974119 L130.403811,94.9741193 Z M325.199926,81.5773503 L369.367222,107.07735 L369.367222,257.07735 L239.463411,332.07735 L195.296115,306.57735 L325.199926,231.57735 L325.199926,81.5773503 Z M184.963411,0.577350269 L314.867222,75.5773503 L314.867222,225.57735 L270.699926,251.07735 L270.699926,101.07735 L140.796115,26.0773503 L184.963411,0.577350269 Z M130.433611,32.0257348 L260.337421,107.025735 L260.337421,158.025735 L130.433611,83.0257348 L0.529800219,158.025735 L0.529800219,107.025735 L130.433611,32.0257348 Z" id="形状结合" stroke="#979797" fill="#FFFFFF"></path>
    </g>
</svg>